<svg id="Capa_1" enable-background="new 0 0 512 512" height="512" viewBox="0 0 512 512" width="512" xmlns="http://www.w3.org/2000/svg"><g><g><path d="m256 512c-22.758 0-41.207-18.449-41.207-41.207v-123.622h82.414v123.622c0 22.758-18.449 41.207-41.207 41.207z" fill="#ffd3a3"/></g><g><path d="m256 470.793v-27.815h41.207v-95.807h-82.414v123.622c0 22.758 18.449 41.207 41.207 41.207 7.508 0 14.541-2.018 20.604-5.526-12.314-7.126-20.604-20.431-20.604-35.681z" fill="#ffbe74"/></g><g><path d="m297.207 412.072h-82.414c-56.895 0-103.018-46.123-103.018-103.018v-164.829c0-79.653 64.571-144.225 144.225-144.225 79.653 0 144.225 64.572 144.225 144.225v164.829c0 56.896-46.122 103.018-103.018 103.018z" fill="#e7886e"/></g><g><path d="m194.189 309.054v-164.829c0-65.333 43.445-120.509 103.018-138.241-13.058-3.887-26.886-5.984-41.207-5.984-79.653 0-144.225 64.572-144.225 144.225v164.829c0 56.895 46.123 103.018 103.018 103.018h82.414c-56.895 0-103.018-46.122-103.018-103.018z" fill="#dc6646"/></g><g><g><g><ellipse cx="173.951" cy="152.743" fill="#fff" rx="30.274" ry="24.109"/></g><g><ellipse cx="338.049" cy="152.743" fill="#fff" rx="30.274" ry="24.109"/></g><g><path d="m280.409 134.22c0-15.085-10.928-16.502-24.409-16.502-13.48 0-24.409 1.417-24.409 16.502s10.928 27.313 24.409 27.313c13.48 0 24.409-12.229 24.409-27.313z" fill="#423e4f"/></g></g><g><path d="m179.013 131.46c-4.142 0-7.5-3.358-7.5-7.5v-12.362c0-4.142 3.358-7.5 7.5-7.5s7.5 3.358 7.5 7.5v12.362c0 4.143-3.358 7.5-7.5 7.5z" fill="#423e4f"/></g><g><path d="m332.988 131.46c-4.142 0-7.5-3.358-7.5-7.5v-12.362c0-4.142 3.358-7.5 7.5-7.5s7.5 3.358 7.5 7.5v12.362c0 4.143-3.358 7.5-7.5 7.5z" fill="#423e4f"/></g></g><g><circle cx="204.491" cy="245.767" fill="#dc6646" r="20.604"/></g><g><circle cx="342.535" cy="300.366" fill="#dc6646" r="20.604"/></g><g><circle cx="302.358" cy="358.056" fill="#dc6646" r="15.453"/></g></g></svg>